<svg xmlns="http://www.w3.org/2000/svg" viewBox="0 0 1080 1080">
  <rect width="1080" height="1080" rx="160" fill="#1A1A1A"/>
  <path fill="#fff" transform="translate(108,108) scale(0.8)" d="M719.68,360c.11.07.21.16.32.23,68.11,51.13,128.73,111.7,179.91,179.77.02.04.06.07.09.11,41.6,55.35,76.98,115.66,105.06,179.89,24.98,57.15,44.21,117.39,56.93,180,8.47,41.69,14.05,84.42,16.54,127.99,1.61,28.25-20.93,52.01-49.22,52.01h-387.05c-23.2,0-43.24-16.18-48.16-38.85-10.84-49.95-29.29-97.05-54.08-140.05v-1.1h-.64c-43.05-74.24-105.05-136.15-179.36-179.11v-.89h-1.56c.51.29,1.04.59,1.56.89v309.82c0,27.22-22.07,49.29-49.29,49.29H49.29c-27.22,0-49.29-22.07-49.29-49.29V49.29C0,22.07,22.07,0,49.29,0h981.42c27.22,0,49.29,22.07,49.29,49.29v261.42c0,27.22-22.07,49.29-49.29,49.29h-311.03Z"/>
</svg>
